<svg width="128" height="40" viewBox="0 0 128 40" fill="none" xmlns="http://www.w3.org/2000/svg">
<path d="M127.908 26.84C127.908 27.6133 127.775 28.3333 127.508 29C127.241 29.64 126.868 30.1867 126.388 30.64C125.935 31.12 125.375 31.4933 124.708 31.76C124.068 32.0267 123.361 32.16 122.588 32.16H109.548C108.775 32.16 108.055 32.0267 107.388 31.76C106.748 31.4933 106.188 31.12 105.708 30.64C105.255 30.1867 104.895 29.64 104.628 29C104.361 28.3333 104.228 27.6133 104.228 26.84V16.76C104.228 15.9867 104.361 15.28 104.628 14.64C104.895 13.9733 105.255 13.4133 105.708 12.96C106.188 12.48 106.748 12.1067 107.388 11.84C108.055 11.5733 108.775 11.44 109.548 11.44H122.588C123.361 11.44 124.068 11.5733 124.708 11.84C125.375 12.1067 125.935 12.48 126.388 12.96C126.868 13.4133 127.241 13.9733 127.508 14.64C127.775 15.28 127.908 15.9867 127.908 16.76V19.52H121.748V17.4C121.748 16.5733 121.481 15.8933 120.948 15.36C120.415 14.8267 119.735 14.56 118.908 14.56H113.268C112.441 14.56 111.761 14.8267 111.228 15.36C110.695 15.8933 110.428 16.5733 110.428 17.4V26.2C110.428 27.0267 110.695 27.7067 111.228 28.24C111.761 28.7733 112.441 29.04 113.268 29.04H118.908C119.735 29.04 120.415 28.7733 120.948 28.24C121.481 27.7067 121.748 27.0267 121.748 26.2V25.36H127.908V26.84Z" fill="#2563EB"/>
<path d="M98.1054 8.68C97.092 8.68 96.2787 8.4 95.6654 7.84C95.052 7.25333 94.7454 6.41333 94.7454 5.32C94.7454 4.25333 95.052 3.44 95.6654 2.88C96.2787 2.29333 97.092 2 98.1054 2C99.092 2 99.892 2.29333 100.505 2.88C101.145 3.44 101.465 4.25333 101.465 5.32C101.465 6.41333 101.145 7.25333 100.505 7.84C99.892 8.4 99.092 8.68 98.1054 8.68ZM94.8654 11.84H101.345V32H94.8654V11.84Z" fill="#2563EB"/>
<path d="M86.9006 11.6C88.394 11.6 89.6073 12.08 90.5406 13.04C91.5006 13.9733 91.9806 15.1867 91.9806 16.68V24.08C91.9806 25.5733 91.5006 26.8 90.5406 27.76C89.6073 28.6933 88.394 29.16 86.9006 29.16H77.2606V38.68H70.3806V11.6H86.9006ZM83.0206 25.84C83.7939 25.84 84.4206 25.6 84.9006 25.12C85.4073 24.6133 85.6606 23.9733 85.6606 23.2V17.36C85.6606 16.5867 85.4073 15.96 84.9006 15.48C84.4206 14.9733 83.7939 14.72 83.0206 14.72H77.2606V25.84H83.0206Z" fill="#2563EB"/>
<path d="M66.7935 32H59.9135V15H57.3935C56.8869 15 56.4469 15.16 56.0735 15.48C55.7269 15.8 55.5269 16.2133 55.4735 16.72L53.5535 32H47.5135L49.8735 15H47.1135C46.6335 15 46.2069 15.1467 45.8335 15.44C45.4869 15.7333 45.2735 16.12 45.1935 16.6L42.4335 32H36.1135L39.2735 15.16C39.4869 14.0933 39.9669 13.2533 40.7135 12.64C41.4602 12 42.3669 11.68 43.4335 11.68H66.7935V32Z" fill="#2563EB"/>
<path d="M29.5507 8.68C28.5373 8.68 27.724 8.4 27.1107 7.84C26.4973 7.25333 26.1907 6.41333 26.1907 5.32C26.1907 4.25333 26.4973 3.44 27.1107 2.88C27.724 2.29333 28.5373 2 29.5507 2C30.5373 2 31.3373 2.29333 31.9507 2.88C32.5907 3.44 32.9107 4.25333 32.9107 5.32C32.9107 6.41333 32.5907 7.25333 31.9507 7.84C31.3373 8.4 30.5373 8.68 29.5507 8.68ZM26.3107 11.84H32.7907V32H26.3107V11.84Z" fill="#2563EB"/>
<path d="M23.6 11.6V14.68L9.28 28.88H23.8V32H1.04V29L15.32 14.72H1V11.6H23.6Z" fill="#2563EB"/>
</svg>
