<svg width="64" height="40" viewBox="0 0 64 40" fill="none" xmlns="http://www.w3.org/2000/svg">
<path d="M64 7V23.3927H57.7844V7H64ZM32.8879 20.7289H47.8463L48.666 13.6596L44.0896 19.4653L39.0694 19.4995C38.4774 19.4995 38.0334 19.3515 37.7375 19.0555C37.4642 18.7367 37.2707 18.2814 37.1569 17.6894L35.7567 9.76628H32.8879V7.34152H56.111V9.76628H41.1868L42.2796 16.8698L46.9925 10.8933H51.9787C52.5934 10.8933 53.0601 11.064 53.3789 11.4055C53.6976 11.7471 53.8342 12.2252 53.7887 12.8399L53.174 20.7289H56.111V23.1537H32.8879V20.7289ZM33.5027 24.5539H63.9658V33.0918H57.6137V27.1836H33.5027V24.5539Z" fill="#2563EB"/>
<path d="M29.3362 23.1195V33.0918H4.61046C3.26716 33.0918 2.24262 32.7389 1.53682 32.0331C0.853788 31.3273 0.512273 30.2572 0.512273 28.8228V23.1195H29.3362ZM0 7.34152H21.5838V9.97118H19.603V21.4803H13.7289V9.97118H11.3725C10.3935 9.97118 9.75596 10.4379 9.45998 11.3714L6.31803 21.4803H0.307364L4.23479 9.97118H0V7.34152ZM6.72785 29.0277C6.72785 29.9385 7.18321 30.3938 8.09392 30.3938H23.1206V25.715H6.72785V29.0277ZM23.1547 7H29.3703V21.5144H23.1547V7Z" fill="#2563EB"/>
</svg>
